<svg viewBox="0 0 512 512"><path d="M256.3 293c26.9 31.2 58.3 58.5 99.9 58.5 56.1 0 89.5-42.6 89.5-96.8 0-54-34.1-94.2-89-94.2 -43.9 0-72.7 28.5-100.4 62.1 -28.5-34.1-56.7-62.1-101.4-62.1 -53.5 0-88.5 40.2-88.5 95.2 0 54.6 35.8 95.7 90.8 95.7C204.1 351.5 228.7 321.9 256.3 293zM115.5 256.8c0-21.3 13.9-44.5 39.3-44.5 26 0 52.7 25.9 70.4 45 -17.2 20.1-42.5 41.9-68.8 41.9C130.3 299.2 115.5 281.1 115.5 256.8zM287.3 257.3c18.4-19.9 41.2-45 68.3-45 26.4 0 41.4 20.8 41.4 44 0 23.4-13.7 43-39.8 43C329.2 299.2 305.7 278.5 287.3 257.3z"/></svg>